<svg version="1.1" id="Layer_1" xmlns="http://www.w3.org/2000/svg" xmlns:xlink="http://www.w3.org/1999/xlink" x="0px" y="0px"
	 width="100%" viewBox="0 0 225 225" enable-background="new 0 0 225 225" xml:space="preserve">
<path fill="#015A9A" opacity="1.000000" stroke="none" 
	d="
M174.000000,1.000000 
	C177.030594,1.000000 180.061188,1.000000 183.546570,1.468644 
	C184.001343,9.621303 184.001343,17.305317 184.001343,24.883347 
	C187.693726,24.883347 190.620422,24.883347 194.000000,24.883347 
	C194.000000,16.784216 194.000000,8.892108 194.000000,1.000000 
	C204.661301,1.000000 215.322601,1.000000 225.987915,0.999999 
	C225.991943,75.956894 225.991943,150.913788 225.991943,225.935333 
	C151.080887,225.935333 76.161713,225.935333 1.121267,225.935333 
	C1.121267,151.118759 1.121267,76.237251 1.121267,1.000000 
	C55.020374,1.000000 109.041527,1.000000 163.575653,1.466822 
	C164.088623,9.536547 164.088623,17.139450 164.088623,24.759361 
	C167.721542,24.759361 170.765717,24.759361 174.000000,24.759361 
	C174.000000,16.606915 174.000000,8.803457 174.000000,1.000000 
M88.554222,45.675961 
	C88.372391,46.639790 88.034065,47.603294 88.032043,48.567501 
	C87.997963,64.781914 87.985825,80.996490 88.043304,97.210770 
	C88.047775,98.472603 88.605034,99.732483 89.484550,101.616783 
	C93.236542,101.616783 96.988533,101.616783 100.989151,101.616783 
	C100.989151,90.757477 100.838783,80.441544 101.034172,70.132164 
	C101.207237,61.001247 107.022423,55.479996 115.878151,55.561314 
	C124.087425,55.636692 129.086624,61.109837 129.233871,70.209366 
	C129.268890,72.373741 129.241608,74.539139 129.241699,76.704071 
	C129.242020,84.973145 129.241806,93.242226 129.241806,101.627808 
	C133.500229,101.627808 137.088928,101.627808 140.840149,101.627808 
	C140.840149,88.623009 141.596024,75.793236 140.581848,63.104946 
	C139.872620,54.231754 133.933411,47.957596 124.981293,45.604645 
	C116.472572,43.368237 108.588860,45.247753 101.148453,50.894783 
	C101.014809,48.571167 100.916832,46.867805 100.810005,45.010525 
	C96.664894,45.010525 92.856339,45.010525 88.554222,45.675961 
M157.753906,169.745224 
	C168.858643,180.034531 180.657776,180.285355 193.106201,171.467545 
	C193.760956,179.978653 192.342102,187.108459 184.768143,190.937881 
	C174.570572,196.093842 166.268417,191.484024 159.840164,185.466888 
	C156.965698,187.858032 154.338531,190.043457 151.741776,192.203583 
	C160.116409,202.348465 174.589050,206.363724 186.607635,201.978394 
	C198.487167,197.643768 205.196365,187.478210 205.232666,173.593475 
	C205.273636,157.931198 205.248581,142.268738 205.231720,126.606369 
	C205.230179,125.170525 205.080017,123.734840 205.003662,122.383881 
	C200.911789,122.383881 197.202393,122.383881 193.552551,122.383881 
	C193.348022,124.343819 193.185410,125.902016 192.971939,127.947662 
	C186.097717,122.948463 178.937195,120.663010 170.990311,122.483025 
	C150.922623,127.078949 141.943390,152.603775 157.753906,169.745224 
M56.687859,178.517029 
	C68.311249,175.441116 76.132996,168.236832 78.572083,156.431610 
	C80.910530,145.113434 77.397324,135.206360 68.141342,128.053818 
	C56.565826,119.108879 44.823837,120.379051 32.923332,129.531387 
	C32.923332,117.893440 32.923332,107.177322 32.923332,96.439880 
	C28.774303,96.439880 25.063848,96.439880 21.447948,96.439880 
	C21.447948,124.136307 21.447948,151.489838 21.447948,178.806274 
	C25.454899,178.806274 29.085150,178.806274 33.055050,178.806274 
	C33.055050,176.701630 33.055050,174.792694 33.055050,172.177261 
	C40.174831,177.556931 47.509876,180.074219 56.687859,178.517029 
M93.151039,169.327255 
	C107.311310,183.003082 126.975937,182.207367 139.996307,167.184067 
	C137.487610,164.815353 134.960480,162.429230 132.291306,159.908981 
	C125.815132,167.177994 117.918121,170.620987 108.301270,166.919571 
	C102.430099,164.659821 98.693062,160.235306 97.722641,153.235168 
	C112.656090,153.235168 127.088203,153.235168 141.422958,153.235168 
	C144.076691,142.289642 139.140900,131.283768 129.401718,125.853119 
	C116.960815,118.915955 101.357094,121.600166 92.144608,132.262238 
	C83.108131,142.720612 83.310814,156.363647 93.151039,169.327255 
M180.319626,101.857613 
	C182.287338,101.550804 184.281342,101.359566 186.218521,100.918648 
	C199.931244,97.797623 210.539398,83.271217 208.666458,70.248962 
	C206.814224,57.370667 195.635559,46.255722 183.284241,45.011421 
	C168.858871,43.558163 155.848846,51.243519 151.045212,64.055855 
	C144.295044,82.060036 158.636139,101.156052 180.319626,101.857613 
z"/>
<path fill="#FBFCFD" opacity="1.000000" stroke="none" 
	d="
M173.545898,1.000000 
	C174.000000,8.803457 174.000000,16.606915 174.000000,24.759361 
	C170.765717,24.759361 167.721542,24.759361 164.088623,24.759361 
	C164.088623,17.139450 164.088623,9.536547 164.044312,1.466822 
	C167.030594,1.000000 170.061188,1.000000 173.545898,1.000000 
z"/>
<path fill="#FFFFFF" opacity="1.000000" stroke="none" 
	d="
M193.545898,1.000000 
	C194.000000,8.892108 194.000000,16.784216 194.000000,24.883347 
	C190.620422,24.883347 187.693726,24.883347 184.001343,24.883347 
	C184.001343,17.305317 184.001343,9.621303 184.000671,1.468644 
	C187.030594,1.000000 190.061188,1.000000 193.545898,1.000000 
z"/>
<path fill="#FBD304" opacity="1.000000" stroke="none" 
	d="
M157.509094,169.486526 
	C141.943390,152.603775 150.922623,127.078949 170.990311,122.483025 
	C178.937195,120.663010 186.097717,122.948463 192.971939,127.947662 
	C193.185410,125.902016 193.348022,124.343819 193.552551,122.383881 
	C197.202393,122.383881 200.911789,122.383881 205.003662,122.383881 
	C205.080017,123.734840 205.230179,125.170525 205.231720,126.606369 
	C205.248581,142.268738 205.273636,157.931198 205.232666,173.593475 
	C205.196365,187.478210 198.487167,197.643768 186.607635,201.978394 
	C174.589050,206.363724 160.116409,202.348465 151.741776,192.203583 
	C154.338531,190.043457 156.965698,187.858032 159.840164,185.466888 
	C166.268417,191.484024 174.570572,196.093842 184.768143,190.937881 
	C192.342102,187.108459 193.760956,179.978653 193.106201,171.467545 
	C180.657776,180.285355 168.858643,180.034531 157.509094,169.486526 
M169.809586,164.991394 
	C178.345306,170.230118 189.457108,165.386093 192.562119,154.870956 
	C195.036652,146.490875 190.624466,137.071548 182.716110,133.882126 
	C175.550415,130.992203 167.302017,134.338242 163.440201,141.701569 
	C159.328094,149.542114 161.517883,158.349060 169.809586,164.991394 
z"/>
<path fill="#FBD304" opacity="1.000000" stroke="none" 
	d="
M56.268799,178.620117 
	C47.509876,180.074219 40.174831,177.556931 33.055050,172.177261 
	C33.055050,174.792694 33.055050,176.701630 33.055050,178.806274 
	C29.085150,178.806274 25.454899,178.806274 21.447948,178.806274 
	C21.447948,151.489838 21.447948,124.136307 21.447948,96.439880 
	C25.063848,96.439880 28.774303,96.439880 32.923332,96.439880 
	C32.923332,107.177322 32.923332,117.893440 32.923332,129.531387 
	C44.823837,120.379051 56.565826,119.108879 68.141342,128.053818 
	C77.397324,135.206360 80.910530,145.113434 78.572083,156.431610 
	C76.132996,168.236832 68.311249,175.441116 56.268799,178.620117 
M64.721664,141.028595 
	C58.766663,133.316269 51.477013,130.751724 44.390644,133.876007 
	C36.335938,137.427231 31.656689,145.664963 33.338871,153.602386 
	C34.888309,160.913452 39.346306,165.939209 46.490925,167.833176 
	C53.218739,169.616669 59.048615,167.109741 63.362068,161.777466 
	C68.374992,155.580521 68.693535,148.761856 64.721664,141.028595 
z"/>
<path fill="#FCD404" opacity="1.000000" stroke="none" 
	d="
M92.919083,169.053970 
	C83.310814,156.363647 83.108131,142.720612 92.144608,132.262238 
	C101.357094,121.600166 116.960815,118.915955 129.401718,125.853119 
	C139.140900,131.283768 144.076691,142.289642 141.422958,153.235168 
	C127.088203,153.235168 112.656090,153.235168 97.722641,153.235168 
	C98.693062,160.235306 102.430099,164.659821 108.301270,166.919571 
	C117.918121,170.620987 125.815132,167.177994 132.291306,159.908981 
	C134.960480,162.429230 137.487610,164.815353 139.996307,167.184067 
	C126.975937,182.207367 107.311310,183.003082 92.919083,169.053970 
M126.789696,143.603500 
	C127.976067,143.442596 129.162430,143.281693 130.459961,143.105713 
	C127.731918,135.410797 121.723930,131.691330 113.481041,132.167480 
	C105.414536,132.633438 100.089920,136.604477 98.479271,143.603577 
	C107.676018,143.603577 116.806969,143.603577 126.789696,143.603500 
z"/>
<path fill="#FAFCFD" opacity="1.000000" stroke="none" 
	d="
M179.879395,101.860840 
	C158.636139,101.156052 144.295044,82.060036 151.045212,64.055855 
	C155.848846,51.243519 168.858871,43.558163 183.284241,45.011421 
	C195.635559,46.255722 206.814224,57.370667 208.666458,70.248962 
	C210.539398,83.271217 199.931244,97.797623 186.218521,100.918648 
	C184.281342,101.359566 182.287338,101.550804 179.879395,101.860840 
M174.528748,90.325363 
	C182.533661,92.185608 189.734070,89.434464 194.040298,82.870384 
	C198.074661,76.720680 197.841919,68.622223 193.461700,62.738884 
	C189.012955,56.763512 181.327103,54.054626 174.433563,56.032406 
	C167.184402,58.112213 162.071899,64.499664 161.575104,72.097481 
	C161.037323,80.322029 165.142487,86.391701 174.528748,90.325363 
z"/>
<path fill="#FAFCFD" opacity="1.000000" stroke="none" 
	d="
M89.047783,45.010525 
	C92.856339,45.010525 96.664894,45.010525 100.810005,45.010525 
	C100.916832,46.867805 101.014809,48.571167 101.148453,50.894783 
	C108.588860,45.247753 116.472572,43.368237 124.981293,45.604645 
	C133.933411,47.957596 139.872620,54.231754 140.581848,63.104946 
	C141.596024,75.793236 140.840149,88.623009 140.840149,101.627808 
	C137.088928,101.627808 133.500229,101.627808 129.241806,101.627808 
	C129.241806,93.242226 129.242020,84.973145 129.241699,76.704071 
	C129.241608,74.539139 129.268890,72.373741 129.233871,70.209366 
	C129.086624,61.109837 124.087425,55.636692 115.878151,55.561314 
	C107.022423,55.479996 101.207237,61.001247 101.034172,70.132164 
	C100.838783,80.441544 100.989151,90.757477 100.989151,101.616783 
	C96.988533,101.616783 93.236542,101.616783 89.240967,100.838318 
	C89.014175,81.710068 89.030975,63.360298 89.047783,45.010525 
z"/>
<path fill="#004992" opacity="1.000000" stroke="none" 
	d="
M88.801003,45.343243 
	C89.030975,63.360298 89.014175,81.710068 88.951370,100.526558 
	C88.605034,99.732483 88.047775,98.472603 88.043304,97.210770 
	C87.985825,80.996490 87.997963,64.781914 88.032043,48.567501 
	C88.034065,47.603294 88.372391,46.639790 88.801003,45.343243 
z"/>
<path fill="#035A99" opacity="1.000000" stroke="none" 
	d="
M169.475037,164.809326 
	C161.517883,158.349060 159.328094,149.542114 163.440201,141.701569 
	C167.302017,134.338242 175.550415,130.992203 182.716110,133.882126 
	C190.624466,137.071548 195.036652,146.490875 192.562119,154.870956 
	C189.457108,165.386093 178.345306,170.230118 169.475037,164.809326 
z"/>
<path fill="#035B99" opacity="1.000000" stroke="none" 
	d="
M64.897812,141.372559 
	C68.693535,148.761856 68.374992,155.580521 63.362068,161.777466 
	C59.048615,167.109741 53.218739,169.616669 46.490925,167.833176 
	C39.346306,165.939209 34.888309,160.913452 33.338871,153.602386 
	C31.656689,145.664963 36.335938,137.427231 44.390644,133.876007 
	C51.477013,130.751724 58.766663,133.316269 64.897812,141.372559 
z"/>
<path fill="#166194" opacity="1.000000" stroke="none" 
	d="
M126.363800,143.603546 
	C116.806969,143.603577 107.676018,143.603577 98.479271,143.603577 
	C100.089920,136.604477 105.414536,132.633438 113.481041,132.167480 
	C121.723930,131.691330 127.731918,135.410797 130.459961,143.105713 
	C129.162430,143.281693 127.976067,143.442596 126.363800,143.603546 
z"/>
<path fill="#035B9B" opacity="1.000000" stroke="none" 
	d="
M174.141174,90.214645 
	C165.142487,86.391701 161.037323,80.322029 161.575104,72.097481 
	C162.071899,64.499664 167.184402,58.112213 174.433563,56.032406 
	C181.327103,54.054626 189.012955,56.763512 193.461700,62.738884 
	C197.841919,68.622223 198.074661,76.720680 194.040298,82.870384 
	C189.734070,89.434464 182.533661,92.185608 174.141174,90.214645 
z"/>
</svg>