<svg xmlns="http://www.w3.org/2000/svg" xml:space="preserve" width="377.959" height="174.869"><path d="M2362.4 1071.81h46.13c30.6 0 48.75-8.97 48.75-40.44 0-10.71-4.15-27.34-16.61-31.698 19.02-5.25 24.7-21.871 24.7-36.953 0-31.489-18.8-43.949-52.47-43.949h-50.5zm25.14-21.43v-43.28h20.55c19.46 0 25.14 8.3 25.14 21.2 0 14.21-4.8 22.08-26.67 22.08zm0-63.841v-45.687h24.49c19.89 0 28.2 7.867 28.2 23.609 0 14.648-8.09 22.078-25.14 22.078h-27.55M2577.08 965.34h-64.93c.22-11.149 1.53-15.961 5.69-20.77 3.71-4.371 10.05-6.781 17.92-6.781 12.03 0 23.18 4.383 29.96 10.723l9.39-17.711c-10.06-8.75-23.83-14.211-41.97-14.211-15.3 0-26.67 5.019-34.1 12.89-9.85 10.5-11.81 22.079-11.81 44.829 0 23.39 2.84 36.061 13.55 46.341 7.88 6.77 17.92 11.59 32.13 11.59 14.22 0 25.15-4.38 32.37-11.59 11.36-11.59 12.67-27.771 11.8-55.31m-65.15 18.59h41.33c-.44 11.351-1.32 17.7-5.26 21.85-3.49 3.94-8.74 5.69-15.09 5.69-6.33 0-11.58-1.75-15.3-5.69-4.15-4.59-5.24-10.061-5.68-21.85M2595 1030.05h13.99l3.5 27.76h20.55v-27.76h28.86v-20.77h-28.86v-59.678c0-7.653 3.72-11.153 10.94-11.153 6.55 0 10.93 1.531 15.08 3.281l3.93-19.019c-5.68-3.063-14.86-5.25-25.36-5.25-20.55 0-29.3 12.019-29.3 29.301v62.518H2595v20.77M2676.32 1030.05h14l3.49 27.76h20.56v-27.76h28.86v-20.77h-28.86v-59.678c0-7.653 3.71-11.153 10.93-11.153 6.56 0 10.93 1.531 15.08 3.281l3.94-19.019c-5.68-3.063-14.86-5.25-25.36-5.25-20.55 0-29.3 12.019-29.3 29.301v62.518h-13.34v20.77M2850.78 965.34h-64.93c.23-11.149 1.54-15.961 5.69-20.77 3.72-4.371 10.06-6.781 17.93-6.781 12.02 0 23.17 4.383 29.95 10.723l9.4-17.711c-10.06-8.75-23.84-14.211-41.98-14.211-15.3 0-26.67 5.019-34.1 12.89-9.84 10.5-11.81 22.079-11.81 44.829 0 23.39 2.84 36.061 13.56 46.341 7.87 6.77 17.93 11.59 32.13 11.59 14.21 0 25.14-4.38 32.36-11.59 11.37-11.59 12.68-27.771 11.8-55.31m-65.14 18.59h41.32c-.44 11.351-1.31 17.7-5.25 21.85-3.49 3.94-8.75 5.69-15.09 5.69-6.33 0-11.58-1.75-15.3-5.69-4.15-4.59-5.24-10.061-5.68-21.85M2877.89 918.77v111.28h20.55l2.63-13.55h.65c7.22 8.96 17.49 15.74 32.58 15.74v-23.83c-15.09.44-25.36-4.38-31.7-13.551V918.77h-24.71M3005.35 1071.81h46.13c30.6 0 48.75-8.97 48.75-40.44 0-10.71-4.16-27.34-16.62-31.698 19.02-5.25 24.7-21.871 24.7-36.953 0-31.489-18.79-43.949-52.47-43.949h-50.49zm25.13-21.43v-43.28h20.55c19.46 0 25.15 8.3 25.15 21.2 0 14.21-4.81 22.08-26.67 22.08zm0-63.841v-45.687h24.49c19.9 0 28.21 7.867 28.21 23.609 0 14.648-8.1 22.078-25.15 22.078h-27.55M3161.43 916.59c-21.86 0-33.23 12.449-33.23 33.012 0 20.328 11.8 33.23 41.1 33.23 8.09 0 15.52-.223 22.52-.441v10.488c0 11.811-5.91 18.161-19.02 18.161-11.59 0-24.27-4.38-31.7-10.06l-7.87 18.36c9.84 7.65 26.89 12.9 42.63 12.9 26.89 0 40.44-12.25 40.44-36.521V918.77h-20.54l-2.63 11.371h-.66c-3.28-3.942-12.9-13.551-31.04-13.551m7.65 19.89c11.37 0 19.46 6.34 22.74 11.149v17.051c-6.12.218-12.69.441-18.37.441-16.4 0-20.55-5.25-20.55-14.211 0-9.621 4.59-14.43 16.18-14.43M3247.78 918.77v111.28h20.55l2.62-11.58h.66c7.21 6.78 17.27 13.77 32.36 13.77 22.29 0 33.66-14.21 33.66-33.228V918.77h-24.7v73.46c0 13.11-5.68 17.93-15.96 17.93-10.28 0-18.8-5.69-24.49-11.808V918.77h-24.7M3369.11 1076.18V918.77h24.7v47.878h8.97l30.39-47.878h29.73l-40.01 59.691 38.7 51.589h-28.64l-30.17-41.968h-8.97v88.098h-24.7M3472.07 1030.05h40.23V918.77h-24.71v90.51h-15.52zm27.98 43.07c9.85 0 15.74-5.9 15.74-14.43 0-8.52-5.89-14.65-15.74-14.65-9.39 0-15.73 6.13-15.73 14.65 0 8.53 6.34 14.43 15.73 14.43M3544.65 918.77v111.28h20.55l2.63-11.58h.65c7.22 6.78 17.28 13.77 32.35 13.77 22.31 0 33.68-14.21 33.68-33.228V918.77h-24.71v73.46c0 13.11-5.69 17.93-15.96 17.93s-18.8-5.69-24.48-11.808V918.77h-24.71M3707.52 874.609c-16.62 0-33.67 5.25-43.5 12.461l7.87 18.801c7.43-5.461 20.98-10.269 33.01-10.269 16.39 0 22.95 8.308 22.95 22.289 0 5.699.22 9.41.66 14.441h-.66c-6.12-6.781-15.74-12.473-29.08-12.473-11.36 0-20.98 4.59-26.44 10.93-8.98 10.063-11.15 21.211-11.15 45.262 0 22.738 2.4 35.419 11.58 44.819 7 7.43 16.83 11.37 30.17 11.37 11.37 0 20.99-3.94 27.54-8.09l1.32 5.9h20.77V917.891c0-29.071-16.18-43.282-45.04-43.282m-1.31 66.68c8.74 0 16.83 4.152 21.64 10.27v54.221c-6.33 3.5-12.9 5.47-20.55 5.47-5.69 0-11.14-1.53-15.3-6.12-4.81-5.47-6.13-12.021-6.13-28.86 0-17.27 1.32-23.391 5.47-29.079 3.28-3.711 8.09-5.902 14.87-5.902M2048.22 2186.13v-.02c0-401.89-326.95-728.82-728.84-728.82h-.02v-195.86h.02c509.89 0 924.72 414.79 924.72 924.68v.02h-195.88" style="fill:#2e61b6;fill-opacity:1;fill-rule:nonzero;stroke:none" transform="matrix(.13333 0 0 -.13333 -122.382 291.484)"/><path d="M3572.1 1411.35h-26.23v-143.68h-74.14v472.36h74.14v-264.39h26.23l91.19 125.95h85.29l-115.46-154.81 119.39-179.11h-88.56zm-467.73-143.68v333.92h61.01l7.87-34.76h1.97c22.3 20.33 51.82 41.33 97.75 41.33 66.92 0 100.37-42.65 100.37-99.72v-240.77h-74.13v220.44c0 39.35-17.06 53.79-47.89 53.79-30.17 0-55.77-17.06-72.81-35.43v-238.8zm-241.42 53.14c34.11 0 58.4 19.03 68.89 33.46v51.17c-18.37.67-38.06 1.32-55.76 1.32-49.21 0-61.66-15.75-61.66-42.65 0-28.86 13.77-43.3 48.53-43.3zm-22.96-59.7c-64.94 0-99.71 37.39-99.71 99.06 0 61.01 36.08 99.72 123.34 99.72 24.26 0 47.22-.66 68.22-1.31v31.49c0 35.42-17.72 54.45-57.74 54.45-34.76 0-72.81-13.11-95.11-30.17l-23.63 55.1c29.53 22.95 80.7 38.71 127.93 38.71 81.35 0 122.03-36.74 122.03-109.56v-230.93h-62.33l-7.87 34.12h-1.97c-9.84-11.81-38.7-40.68-93.16-40.68zm-402.15 209.94v-137.12h72.83c60.34 0 84.63 23.62 84.63 70.86 0 43.95-24.29 66.26-75.45 66.26zm0 191.56v-129.89h61.67c58.38 0 74.79 24.93 74.79 63.63 0 42.65-13.78 66.26-79.38 66.26zm-75.44 64.29h137.76c91.85 0 146.3-26.89 146.3-121.37 0-41.33-13.78-80.69-49.86-95.12 57.08-15.75 74.14-65.61 74.14-110.88 0-94.46-55.77-131.86-156.79-131.86H2362.4Zm-967.6 203.38v-137.12h72.83c60.34 0 84.62 23.61 84.62 70.86 0 43.95-24.28 66.26-75.44 66.26zm0 191.56v-129.89h61.67c58.39 0 74.79 24.92 74.79 63.63 0 42.64-13.78 66.26-79.38 66.26zm-75.44 64.29h137.76c91.84 0 146.3-26.9 146.3-121.37 0-41.33-13.78-80.7-49.86-95.12 57.07-15.75 74.13-65.61 74.13-110.88 0-94.46-55.75-131.86-156.79-131.86h-151.54Zm-326.051-255.85v-137.12h72.821c60.36 0 84.63 23.61 84.63 70.86 0 43.95-24.27 66.26-75.44 66.26zm0 191.56v-129.89h61.671c58.39 0 74.79 24.92 74.79 63.63 0 42.64-13.78 66.26-79.38 66.26zm-75.442 64.29h137.763c91.85 0 146.3-26.9 146.3-121.37 0-41.33-13.77-80.7-49.86-95.12 57.08-15.75 74.13-65.61 74.13-110.88 0-94.46-55.76-131.86-156.79-131.86H917.867v459.23" style="fill:#0c0b0b;fill-opacity:1;fill-rule:nonzero;stroke:none" transform="matrix(.13333 0 0 -.13333 -122.382 291.484)"/></svg>